<?xml version="1.0" standalone="no"?>
<!DOCTYPE svg PUBLIC "-//W3C//DTD SVG 20010904//EN"
 "http://www.w3.org/TR/2001/REC-SVG-20010904/DTD/svg10.dtd">
<svg version="1.0" xmlns="http://www.w3.org/2000/svg"
 width="284.000000pt" height="284.000000pt" viewBox="0 0 284.000000 284.000000"
 preserveAspectRatio="xMidYMid meet">
<metadata>
Created by potrace 1.14, written by Peter Selinger 2001-2017
</metadata>
<g transform="translate(0.000000,284.000000) scale(0.100000,-0.100000)"
fill="#000000" stroke="none">
<path d="M1210 2825 c-331 -56 -573 -182 -807 -421 -139 -142 -256 -332 -317
-514 -72 -216 -105 -515 -72 -647 8 -32 17 -74 19 -93 31 -228 187 -527 372
-716 172 -174 349 -284 585 -362 162 -54 227 -63 430 -64 204 -1 276 10 435
64 170 58 276 115 430 228 50 37 105 72 124 80 70 28 99 72 280 425 105 204
129 316 131 610 1 301 -22 407 -141 650 -68 140 -115 205 -240 333 -164 167
-298 260 -484 334 -89 36 -247 83 -315 93 -75 13 -357 12 -430 0z m151 -29
c19 -8 56 -33 83 -56 65 -54 118 -84 191 -108 58 -20 89 -25 225 -37 209 -20
255 -34 380 -118 221 -151 336 -267 403 -409 61 -129 77 -236 65 -458 -5 -102
10 -237 32 -289 18 -41 21 -61 16 -104 -15 -115 -58 -233 -128 -355 -50 -87
-72 -142 -82 -205 -6 -40 -27 -86 -48 -109 -7 -7 -37 -41 -67 -76 -62 -73 -79
-83 -181 -107 -85 -20 -145 -45 -208 -87 -23 -16 -95 -51 -160 -78 -64 -26
-149 -64 -187 -83 -102 -51 -177 -70 -270 -70 -70 0 -88 4 -143 32 -59 30
-202 71 -249 71 -74 0 -225 92 -434 264 -8 7 -58 46 -110 86 -164 128 -198
177 -229 330 -21 108 -43 155 -129 288 -97 149 -99 155 -97 297 3 129 5 137
69 232 41 61 62 121 77 217 21 135 79 216 233 324 76 53 97 80 97 125 0 40 20
96 45 125 26 31 167 104 345 178 129 54 203 92 271 141 78 55 127 66 190 39z
m324 -11 c142 -32 221 -58 322 -107 88 -42 136 -75 128 -87 -2 -5 -35 -2 -72
5 -37 7 -102 15 -143 19 -160 13 -188 18 -277 46 -73 24 -102 39 -143 76 -48
43 -51 48 -34 60 27 20 96 16 219 -12z m-588 -31 c6 -19 -38 -41 -244 -124
-187 -75 -236 -86 -181 -40 41 34 200 113 298 147 97 33 121 36 127 17z m-607
-366 c0 -89 -26 -125 -161 -227 -65 -50 -119 -85 -119 -78 0 44 238 357 272
357 4 0 8 -23 8 -52z m-351 -575 c-22 -107 -51 -162 -69 -133 -5 7 -7 18 -5
24 2 6 6 27 9 47 7 45 11 58 50 144 40 91 46 62 15 -82z m2646 -124 c8 -41 19
-210 18 -282 -1 -82 -14 -102 -36 -55 -20 43 -28 100 -32 229 -3 84 -1 111 12
128 17 25 31 18 38 -20z m-2627 -667 c48 -83 68 -133 76 -196 4 -27 11 -58 17
-68 5 -10 7 -23 4 -28 -11 -18 -35 -10 -45 15 -5 13 -20 41 -34 62 -30 46 -97
240 -91 268 2 11 4 24 4 29 2 17 30 -17 69 -82z m294 -524 c47 -35 154 -119
238 -188 84 -69 159 -131 168 -137 9 -7 13 -15 11 -18 -9 -8 -168 77 -244 130
-73 51 -275 245 -275 264 0 20 16 12 102 -51z m1782 -191 c-5 -14 -145 -99
-239 -146 -78 -38 -234 -93 -246 -85 -30 18 16 48 151 100 52 20 125 57 163
81 71 47 104 61 149 62 19 1 26 -3 22 -12z m-1066 -217 c77 -24 41 -51 -42
-31 -28 7 -69 20 -90 29 -37 15 -38 17 -15 22 28 7 85 -1 147 -20z"/>
<path d="M1060 2450 c-28 -53 29 -196 68 -171 9 5 7 28 -11 96 -23 92 -38 111
-57 75z"/>
<path d="M1697 2445 c-42 -22 -117 -86 -117 -100 0 -24 24 -33 55 -20 34 15
98 72 107 97 11 27 -14 39 -45 23z"/>
<path d="M2022 2327 c-6 -7 -17 -42 -26 -79 -22 -95 -9 -121 38 -75 24 25 43
117 30 150 -7 20 -27 22 -42 4z"/>
<path d="M703 2179 c-8 -8 -7 -25 4 -62 8 -28 17 -60 19 -71 2 -11 10 -27 19
-35 13 -14 17 -14 31 0 30 31 -16 179 -56 179 -3 0 -11 -5 -17 -11z"/>
<path d="M1378 2024 c-21 -6 -31 -33 -19 -48 5 -6 43 -11 92 -11 67 0 84 3 93
17 8 13 7 21 -1 29 -12 12 -135 22 -165 13z"/>
<path d="M2453 1980 c-29 -4 -60 -10 -68 -14 -23 -9 -18 -35 10 -48 49 -22
198 36 168 66 -8 7 -40 6 -110 -4z"/>
<path d="M1983 1893 c-24 -9 -13 -60 24 -117 38 -57 68 -72 80 -39 12 32 -78
167 -104 156z"/>
<path d="M1370 1826 c-119 -25 -142 -36 -163 -82 -9 -17 -44 -53 -79 -80 -76
-58 -83 -66 -110 -124 -27 -57 -28 -141 -3 -193 24 -51 68 -93 156 -150 42
-27 91 -70 112 -98 40 -51 74 -74 123 -83 29 -6 179 29 200 45 6 5 17 27 24
49 15 45 59 89 120 120 96 49 124 147 74 261 -20 46 -28 81 -28 125 -1 68 -11
86 -65 114 -20 10 -56 36 -81 57 -82 72 -103 75 -280 39z m203 -20 c18 -8 52
-33 76 -55 25 -23 50 -41 58 -41 21 0 53 -38 53 -64 0 -38 -17 -40 -47 -5 -64
73 -81 83 -232 140 l-35 13 30 13 c38 16 58 16 97 -1z m-45 -71 c195 -58 278
-298 165 -478 -72 -114 -265 -162 -393 -97 -65 32 -135 110 -156 173 -82 245
137 475 384 402z m-396 -127 c3 -7 -4 -35 -14 -62 -20 -52 -22 -132 -6 -194 5
-18 8 -45 6 -59 l-3 -26 -27 27 c-57 58 -76 136 -52 216 20 69 84 134 96 98z
m680 -165 c8 -32 1 -123 -11 -137 -6 -8 -20 -16 -31 -19 -21 -5 -21 2 -1 95 5
20 6 39 4 42 -3 3 -3 12 0 21 8 20 34 19 39 -2z m-232 -342 c0 -28 -54 -46
-138 -45 -53 0 -77 5 -89 17 -15 15 -15 17 11 26 15 6 41 9 59 6 18 -2 48 -1
67 4 62 16 90 13 90 -8z"/>
<path d="M425 1799 c-6 -9 0 -97 11 -153 6 -31 21 -41 39 -26 13 11 16 26 11
71 -7 83 -41 142 -61 108z"/>
<path d="M915 1784 c-40 -40 -66 -133 -45 -159 18 -22 28 -11 65 69 24 52 30
76 24 89 -12 21 -23 22 -44 1z"/>
<path d="M2346 1548 c-22 -35 -40 -138 -27 -151 18 -18 41 3 62 53 21 53 24
91 7 108 -17 17 -26 15 -42 -10z"/>
<path d="M383 1268 c-42 -48 -85 -117 -79 -127 13 -20 52 -11 78 17 40 42 69
107 55 121 -17 17 -31 14 -54 -11z"/>
<path d="M705 1223 c-85 -49 -94 -59 -72 -80 17 -17 21 -16 92 21 80 42 93 57
69 81 -20 19 -18 20 -89 -22z"/>
<path d="M2001 1177 c-22 -27 91 -163 124 -151 25 10 17 34 -32 100 -48 63
-71 76 -92 51z"/>
<path d="M2583 1101 c-70 -45 -84 -68 -48 -77 14 -3 37 -3 52 1 29 7 93 69 93
90 0 10 -20 25 -34 25 -2 0 -30 -17 -63 -39z"/>
<path d="M1055 1038 c-5 -23 -9 -118 -6 -150 0 -11 9 -18 21 -18 14 0 22 11
30 39 10 38 7 122 -5 141 -11 18 -35 10 -40 -12z"/>
<path d="M1839 888 c0 -2 -2 -42 -4 -90 -2 -68 0 -90 12 -100 12 -10 18 -9 29
6 31 43 29 168 -2 180 -16 6 -33 8 -35 4z"/>
<path d="M1445 797 c-76 -46 -92 -72 -51 -83 20 -5 41 3 91 36 65 42 82 71 49
84 -9 3 -17 6 -18 6 -1 0 -33 -19 -71 -43z"/>
<path d="M597 733 c-30 -29 48 -68 124 -61 51 5 72 20 62 44 -2 6 -14 15 -26
18 -30 8 -152 8 -160 -1z"/>
<path d="M2353 720 c-74 -22 -83 -27 -83 -45 0 -22 44 -28 102 -15 61 15 78
25 78 50 0 14 -23 34 -33 29 -1 0 -30 -9 -64 -19z"/>
<path d="M1037 474 c-4 -4 -7 -14 -7 -21 0 -15 67 -110 92 -131 18 -15 48 -6
48 15 0 17 -79 133 -91 133 -4 0 -14 2 -21 5 -8 3 -17 2 -21 -1z"/>
<path d="M1610 372 c0 -27 38 -57 96 -78 53 -18 84 -15 84 9 0 17 -128 87
-159 87 -14 0 -21 -6 -21 -18z"/>
</g>
</svg>
